<?xml version="1.0" encoding="iso-8859-1"?>
<!-- Generator: Adobe Illustrator 19.0.0, SVG Export Plug-In . SVG Version: 6.00 Build 0)  -->
<svg version="1.1" id="Layer_1" xmlns="http://www.w3.org/2000/svg" xmlns:xlink="http://www.w3.org/1999/xlink" x="0px" y="0px"
	 viewBox="0 0 511.999 511.999" style="enable-background:new 0 0 511.999 511.999;" xml:space="preserve">
<g>
	<g>
		<g>
			<path d="M415.981,222.941c-23.689-64.363-83.6-108.104-151.915-111.311V95.542h-16.134v16.088
				c-68.314,3.208-128.225,46.949-151.916,111.311c-28.782,8.243-49.222,34.997-49.222,65.299c0,37.023,29.782,67.202,66.646,67.886
				l25.04,149.142c0.652,3.885,4.015,6.731,7.955,6.731h219.127c3.94,0,7.303-2.846,7.955-6.731l25.041-149.142
				c36.864-0.683,66.647-30.862,66.647-67.886C465.206,257.938,444.765,231.182,415.981,222.941z M426.997,265.423
				c0,4.749-3.865,8.612-8.613,8.612s-8.612-3.864-8.612-8.612s3.864-8.612,8.612-8.612
				C423.133,256.809,426.997,260.673,426.997,265.423z M337.439,159.534c4.748,0,8.611,3.864,8.611,8.612s-3.864,8.612-8.611,8.612
				c-4.749,0-8.613-3.864-8.613-8.612S332.69,159.534,337.439,159.534z M92.146,258.228c4.748,0,8.61,3.863,8.61,8.613
				c0,4.749-3.862,8.612-8.61,8.612c-4.75,0-8.614-3.863-8.614-8.612C83.531,262.092,87.396,258.228,92.146,258.228z
				 M153.26,495.866L129.53,354.524c4.415-0.979,8.698-2.389,12.794-4.212l18.867,145.554H153.26z M177.459,495.865v0.001
				l-20.064-154.801c1.518-1.233,2.995-2.525,4.413-3.896c12.588,12.164,29.302,18.988,47.096,18.988
				c3.143,0,6.25-0.224,9.308-0.642l5.157,140.349H177.459z M272.487,495.866h-32.973l-5.311-144.564
				c8.054-3.229,15.451-8,21.798-14.133c6.346,6.133,13.743,10.905,21.798,14.133L272.487,495.866z M288.632,495.866l5.157-140.349
				c3.058,0.417,6.163,0.641,9.305,0.641c17.799,0,34.512-6.823,47.098-18.988c1.417,1.369,2.892,2.66,4.41,3.893L334.54,495.866
				H288.632z M358.736,495.866h-7.93l18.865-145.556c4.098,1.823,8.381,3.234,12.797,4.213L358.736,495.866z M397.288,340.024
				c-15.994,0-30.848-7.238-40.752-19.854c-1.529-1.949-3.869-3.087-6.346-3.087c-2.477,0-4.816,1.139-6.345,3.087
				c-9.9,12.618-24.754,19.854-40.751,19.854c-15.992,0-30.845-7.238-40.749-19.854c-1.529-1.949-3.869-3.087-6.345-3.087
				c-2.476,0-4.818,1.138-6.345,3.087c-9.904,12.618-24.758,19.854-40.752,19.854c-15.992,0-30.846-7.238-40.752-19.855
				c-1.529-1.948-3.87-3.086-6.346-3.086c-2.477,0-4.816,1.139-6.345,3.087c-9.9,12.618-24.753,19.854-40.748,19.854
				c-28.555,0-51.784-23.231-51.784-51.784c0-7.384,1.599-14.487,4.481-20.946c0.244,13.436,11.242,24.292,24.736,24.292
				c13.644,0,24.744-11.101,24.744-24.746c0-13.646-11.1-24.747-24.744-24.747c-0.322,0-0.639,0.012-0.957,0.024
				c3.944-2.024,8.191-3.561,12.67-4.515c2.781-0.593,5.044-2.606,5.958-5.299c20.374-60.089,75.256-101.259,138.115-104.521v14.855
				h16.134V127.78c22.745,1.181,44.444,7.322,63.844,17.529c-8.928,3.74-15.217,12.567-15.217,22.837
				c0,13.645,11.101,24.746,24.747,24.746c13.094,0,23.838-10.225,24.685-23.108c17.849,16.882,31.793,38.144,40.057,62.52
				c0.913,2.693,3.176,4.707,5.958,5.299c3.35,0.714,6.566,1.763,9.628,3.088c-13.359,0.33-24.128,11.293-24.128,24.731
				c0,13.645,11.101,24.746,24.746,24.746c13.646,0,24.747-11.101,24.747-24.746c0-0.4-0.012-0.797-0.03-1.192
				c3.818,7.244,5.971,15.438,5.971,24.009C449.072,316.794,425.841,340.024,397.288,340.024z"/>
			<path d="M200.909,140.458c-13.646,0-24.747,11.101-24.747,24.746c0,13.645,11.101,24.746,24.747,24.746
				c13.645,0,24.745-11.101,24.745-24.746C225.654,151.559,214.554,140.458,200.909,140.458z M200.909,173.816
				c-4.749,0-8.613-3.864-8.613-8.612s3.865-8.612,8.613-8.612c4.748,0,8.611,3.864,8.611,8.612S205.657,173.816,200.909,173.816z"
				/>
			<path d="M174.562,263.494c-13.645,0-24.745,11.101-24.745,24.746s11.1,24.746,24.745,24.746s24.747-11.101,24.747-24.746
				S188.207,263.494,174.562,263.494z M174.562,296.852c-4.748,0-8.611-3.864-8.611-8.612c0-4.749,3.864-8.612,8.611-8.612
				c4.749,0,8.613,3.864,8.613,8.612C183.176,292.989,179.311,296.852,174.562,296.852z"/>
			<path d="M243.246,232.681c-13.645,0-24.746,11.101-24.746,24.746s11.101,24.746,24.746,24.746
				c13.644,0,24.744-11.101,24.744-24.746S256.89,232.681,243.246,232.681z M243.246,266.039c-4.749,0-8.612-3.864-8.612-8.612
				s3.864-8.612,8.612-8.612c4.748,0,8.61,3.864,8.61,8.612S247.994,266.039,243.246,266.039z"/>
			<path d="M256.001,88.804c17.243,0,31.272-14.029,31.272-31.274c0-4.312-1.303-12.462-12.568-33.365
				c-5.868-10.888-11.645-20.031-11.888-20.414C261.338,1.415,258.765,0,256.001,0c-2.764,0-5.337,1.415-6.816,3.752
				c-0.243,0.384-6.02,9.526-11.888,20.414c-11.266,20.902-12.568,29.052-12.568,33.365
				C224.729,74.774,238.758,88.804,256.001,88.804z M256.001,23.692c8.122,14.129,15.138,28.769,15.138,33.838
				c0,8.348-6.791,15.14-15.138,15.14c-8.347,0-15.138-6.791-15.138-15.14C240.863,52.46,247.879,37.821,256.001,23.692z"/>
			<path d="M303.95,200.691c0-13.645-11.1-24.746-24.745-24.746c-13.644,0-24.746,11.101-24.746,24.746s11.101,24.746,24.746,24.746
				C292.85,225.438,303.95,214.336,303.95,200.691z M279.205,209.304c-4.749,0-8.612-3.863-8.612-8.612
				c0-4.749,3.864-8.612,8.612-8.612c4.748,0,8.611,3.863,8.611,8.612C287.816,205.44,283.953,209.304,279.205,209.304z"/>
			<path d="M349.722,210.908c-13.646,0-24.747,11.101-24.747,24.746c0,13.646,11.101,24.747,24.747,24.747
				c13.647,0,24.748-11.101,24.748-24.747C374.469,222.009,363.368,210.908,349.722,210.908z M349.722,244.267
				c-4.749,0-8.613-3.864-8.613-8.613c0-4.749,3.865-8.612,8.613-8.612c4.75,0,8.614,3.863,8.614,8.612
				C358.335,240.403,354.472,244.267,349.722,244.267z"/>
			<path d="M178.438,211.71c0-13.645-11.1-24.746-24.744-24.746c-13.647,0-24.748,11.101-24.748,24.746
				c0,13.646,11.101,24.747,24.748,24.747C167.338,236.456,178.438,225.355,178.438,211.71z M145.081,211.71
				c0-4.749,3.865-8.612,8.614-8.612c4.748,0,8.61,3.863,8.61,8.612c0,4.75-3.862,8.613-8.61,8.613
				C148.945,220.322,145.081,216.459,145.081,211.71z"/>
			<path d="M319.774,278.28c-13.645,0-24.747,11.101-24.747,24.746c0,13.644,11.101,24.745,24.747,24.745
				c13.647,0,24.748-11.101,24.748-24.745C344.522,289.381,333.42,278.28,319.774,278.28z M319.774,311.638
				c-4.749,0-8.613-3.864-8.613-8.611c0-4.749,3.865-8.612,8.613-8.612c4.75,0,8.614,3.863,8.614,8.612
				C328.389,307.775,324.524,311.638,319.774,311.638z"/>
		</g>
	</g>
</g>
<g>
</g>
<g>
</g>
<g>
</g>
<g>
</g>
<g>
</g>
<g>
</g>
<g>
</g>
<g>
</g>
<g>
</g>
<g>
</g>
<g>
</g>
<g>
</g>
<g>
</g>
<g>
</g>
<g>
</g>
</svg>
